<svg xmlns="http://www.w3.org/2000/svg" viewBox="0 0 64 64" role="img" aria-label="WhatsApp Business">
  <rect width="64" height="64" rx="16" fill="#25d366"/>
  <path fill="#fff" d="M32 11.5c-11.2 0-20.3 9.1-20.3 20.3 0 3.6 1 7.1 2.7 10.1L11.5 53l11.4-3c2.9 1.6 6 2.4 9.1 2.4 11.2 0 20.3-9.1 20.3-20.3S43.2 11.5 32 11.5zm0 36.9c-2.8 0-5.5-.8-7.8-2.2l-.6-.4-6.7 1.8 1.8-6.5-.4-.7c-1.7-2.6-2.5-5.5-2.5-8.6 0-8.9 7.3-16.2 16.2-16.2s16.2 7.3 16.2 16.2S40.9 48.4 32 48.4z"/>
  <path fill="#fff" d="M40.8 35.9c-.5-.2-2.9-1.4-3.3-1.6-.4-.2-.8-.2-1.1.2-.3.5-1.2 1.6-1.5 1.9-.3.3-.6.4-1.1.1-.5-.2-2-.7-3.8-2.3-1.4-1.2-2.3-2.8-2.6-3.2-.3-.5 0-.7.2-1 .2-.2.5-.6.7-.9.2-.3.3-.5.5-.8.2-.3.1-.6 0-.9-.1-.2-1.1-2.7-1.5-3.7-.4-1-.8-.8-1.1-.8h-.9c-.3 0-.9.1-1.3.6-.4.5-1.7 1.7-1.7 4.1s1.8 4.8 2 5.1c.2.3 3.5 5.4 8.6 7.5 1.2.5 2.1.8 2.9 1 1.2.4 2.3.3 3.2.2 1-.1 2.9-1.2 3.3-2.3.4-1.1.4-2.1.3-2.3-.2-.4-.5-.5-1-.7z"/>
</svg>
